<?xml version="1.0" standalone="no"?>
<!DOCTYPE svg PUBLIC "-//W3C//DTD SVG 1.1//EN" "http://www.w3.org/Graphics/SVG/1.1/DTD/svg11.dtd" >
<svg xmlns="http://www.w3.org/2000/svg" xmlns:xlink="http://www.w3.org/1999/xlink" version="1.1">
<metadata>
Created by FontForge 20230101 at Sun Oct 11 19:02:24 1998
 By Glenn Lewis
http://members.aol.com/vroomfonde/ttf/ - I suck at golf Copyright (c) 1998 Tom 7 - Free, but not to be resold! Contact: imightbetm@aol.com / 339 Still Hill Rd / Hamden CT 06518 / for(';';';';';');
</metadata>
<defs>
<font id="Isuckatgolf" horiz-adv-x="201" >
  <font-face 
    font-family="I suck at golf"
    font-weight="400"
    font-stretch="normal"
    units-per-em="1000"
    panose-1="0 0 4 0 0 0 0 0 0 0"
    ascent="800"
    descent="-200"
    x-height="411"
    cap-height="633"
    bbox="-1 -208 590 800"
    underline-thickness="20"
    underline-position="-143"
    unicode-range="U+0020-2026"
  />
<missing-glyph horiz-adv-x="500" 
d="M63 0v800h375v-800h-375zM125 63h250v675h-250v-675z" />
    <glyph glyph-name=".notdef" horiz-adv-x="500" 
d="M63 0v800h375v-800h-375zM125 63h250v675h-250v-675z" />
    <glyph glyph-name=".null" horiz-adv-x="0" 
 />
    <glyph glyph-name="nonmarkingreturn" horiz-adv-x="488" 
 />
    <glyph glyph-name="space" unicode=" " horiz-adv-x="488" 
 />
    <glyph glyph-name="exclam" unicode="!" horiz-adv-x="285" 
d="M207 229q0 -26 -60 -26q-11 0 -34 4t-25 8q-4 9 -10 44q-10 64 -17 186q-9 164 -11 188q20 11 58 23q43 15 67 15q22 0 28 -12q4 -7 4 -29v-401zM230 81q0 -27 -28 -46q-24 -17 -46 -17q-27 0 -43 24q-13 20 -13 44q0 28 27 45q21 12 45 12q23 0 40.5 -21t17.5 -41z" />
    <glyph glyph-name="quotedbl" unicode="&#x22;" horiz-adv-x="411" 
d="M186 585q0 -18 -14 -49q-20 -46 -20 -48q-5 -12 -33 -82q-13 -33 -24 -50q-4 -6 -14 -6q-15 0 -15 30q0 -16 13 105q-37 3 -45 20q-3 6 -3 39q0 40 6 55q11 26 43 26q31 0 60 -7q46 -10 46 -33zM379 580q0 -18 -14 -49q-20 -46 -20 -48q-5 -12 -33 -82q-13 -33 -24 -50
q-4 -6 -14 -6q-15 0 -15 30q0 -16 13 105q-37 3 -45 20q-3 6 -3 39q0 40 6 55q11 26 43 26q31 0 60 -7q46 -10 46 -33z" />
    <glyph glyph-name="numbersign" unicode="#" horiz-adv-x="553" 
d="M470 374q0 -46 -29 -46q-2 0 -20 1q-23 2 -44 4q3 -19 0 -76h36q22 -1 22 -23q0 -20 -21.5 -21.5t-41.5 -2.5q-3 -30 -5 -60q-4 -25 -36 -25q-22 0 -27 35q-1 24 -1 48q-25 0 -41 -1.5t-15 -1.5q8 -86 8 -80q0 -8 -6 -18t-13 -11q-62 -9 -97 -9q-24 0 -28 5t-8 37
q-1 18 -6 56h-34q-2 0 -7 -2.5t-9 -2.5q-20 0 -20 30q0 26 22 28q21 0 43 -1q-1 19 -7 81q-8 0 -24.5 1t-18.5 1q-13 0 -15 27q0 3 1.5 12t1.5 13q7 0 24 1.5t26 1.5q0 3 1 16t1 16q0 4 -5 69t-5 68q0 15 6.5 23t44.5 9q-46 -1 63 -1q33 0 40 -13q4 -8 9 -66q0 -5 7 -111
q19 1 58 2q-4 35 -5 104q2 14 24 14q68 0 68 -31q2 -71 -2 -80q22 -1 45 -2q40 -4 40 -18zM299 330h-11q-10 -2 -48 -8q4 -62 0 -66q49 3 59 -1v75z" />
    <glyph glyph-name="dollar" unicode="$" horiz-adv-x="313" 
d="M168 650q0 -28 -7 -35.5t-36 -7.5q-13 0 -13 25q0 37 21 37q35 0 35 -19zM270 562q0 -68 -8 -73t-23 -5q-22 -1 -24 -1q-49 -7 -69 -22q-28 -21 -28 -78q0 -37 35 -67q32 -25 64 -51q35 -35 35 -86q0 -4 -7 -38q-12 -54 -73 -78q-39 -15 -88 -15q-14 0 -14 20t17 20
q3 0 6.5 -1t5.5 -1q73 0 73 59q0 34 -41 60q-10 8 -34 22q-42 22 -67 82q-21 50 -21 95q0 38 27 105q39 96 187 96q33 0 40 -6t7 -37zM194 28q0 -19 -35 -19q-19 0 -19 23q0 22 35 22q19 0 19 -26z" />
    <glyph glyph-name="percent" unicode="%" horiz-adv-x="466" 
d="M437 554q0 -10 -29 -46q-16 -20 -33 -40q-6 -12 -21 -35q-40 -51 -111 -145q-44 -61 -88 -123q-70 -95 -84 -95q-11 0 -29.5 19.5t-18.5 27.5q0 9 30 48l32 40q40 60 117 175q20 24 61 75l54 80q54 76 65 76t33 -25t22 -32zM175 461q0 -43 -17.5 -59.5t-63.5 -16.5
q-41 0 -41 41q0 94 47 94q8 0 33 -9q29 -10 35.5 -18.5t6.5 -31.5zM403 211q0 -51 -79 -51q-38 0 -53.5 13.5t-15.5 50.5q0 74 54 74q3 0 14 -3.5t16 -3.5q15 0 43 -10q21 -14 21 -70zM370 203q1 40 -11 54h-11q-4 -34 -2 -46q2 -15 2 -16q9 3 22 8zM109 480h-13l-1 -52h14
q-2 42 0 52z" />
    <glyph glyph-name="ampersand" unicode="&#x26;" horiz-adv-x="351" 
d="M333 61q0 -17 -22 -17q-15 0 -38 39q-12 22 -24 43q-43 -50 -68 -68q-30 -22 -63 -22q-46 0 -71 32q-21 27 -21 72q0 61 50 158q7 14 35 52q25 33 25 36q0 2 -12 36q-7 18 -15 36q-13 35 -13 46q0 15 27 48.5t36 35.5q23 6 34 6q38 0 60.5 -21.5t22.5 -58.5
q0 -79 -78 -159l59 -131q26 12 29 12q12 0 26 -17.5t14 -24.5t-40 -36q6 -18 28 -58q19 -36 19 -39zM198 478q0 12 -7 25t-18 13q-22 0 -22 -28q0 -11 21 -64q12 7 20 27q6 16 6 27zM226 188q0 5 -27 62.5t-37 68.5q-44 -50 -44 -90q0 -23 11 -45q16 -30 44 -30q6 0 27 10
q26 13 26 24z" />
    <glyph glyph-name="quotesingle" unicode="'" 
d="M186 585q0 -18 -14 -49q-20 -46 -20 -48q-5 -12 -33 -82q-13 -33 -24 -50q-4 -6 -14 -6q-15 0 -15 30q0 -16 13 105q-37 3 -45 20q-3 6 -3 39q0 40 6 55q11 26 43 26q31 0 60 -7q46 -10 46 -33z" />
    <glyph glyph-name="parenleft" unicode="(" horiz-adv-x="287" 
d="M245 632l-1.5 -37t-1.5 -55.5t-4.5 -28.5t-30.5 -15q-34 -7 -71 -42.5t-45 -70.5q-6 -26 -6 -65q0 -42 19 -97q14 -39 34 -60q25 -22 49 -43q38 -35 38 -45q0 -19 -17 -19t-55 24q-53 35 -87 112q-28 67 -28 127q0 83 30 186q11 36 47 86q43 57 76 66q3 0 12.5 4.5
t13.5 4.5q28 0 28 -32z" />
    <glyph glyph-name="parenright" unicode=")" horiz-adv-x="287" 
d="M245 402q0 -84 -30 -187q-11 -35 -47 -85q-42 -58 -76 -66q-3 -1 -12.5 -5.5t-12.5 -4.5q-29 0 -29 33q0 -1 1.5 36t1.5 56t4.5 28.5t30.5 15.5q34 7 71 42t45 71q6 25 6 64q0 42 -19 98q-13 38 -34 59q-54 56 -88 72q-5 2 -5 7q0 8 9 18t14 10q17 0 55 -24
q54 -35 87 -112q28 -66 28 -126z" />
    <glyph glyph-name="asterisk" unicode="*" horiz-adv-x="348" 
d="M301 545q0 -13 -21.5 -29t-26.5 -16q1 0 -88 75q-1 -21 1 -45q2 -28 2 -30q0 -17 -10.5 -22.5t-45.5 -5.5q-54 0 -54 22q0 3 13 34q15 38 20 52q-7 0 -25 -9t-20 -9q-11 0 -19 19q-6 14 -6 23q0 18 13 22l60 18q-10 60 -13 95q14 16 57 16q29 0 38 -12q5 -7 8 -31
q3 -27 11 -45q10 1 34 7t27 6q27 0 27 -38q0 -19 -15 -27q-18 -7 -35 -14q7 -9 25 -23q11 -6 23 -11q20 -11 20 -22z" />
    <glyph glyph-name="plus" unicode="+" horiz-adv-x="411" 
d="M357 305q-29 -4 -70 -13q0 -15 4 -50t4 -36q0 -15 -6 -30.5t-10 -16.5q-63 -13 -98 -13q-68 0 -68 14q-1 21 1.5 64.5t2.5 40.5v20l-2 4q-9 0 -31.5 -2.5t-23.5 -2.5q-23 0 -23 31q0 18 43.5 24.5t43.5 10.5q2 23 7 68v24q0 17 6.5 23.5t43.5 8.5q12 1 40 4t31 3
q23 0 27 -48q0 -34 1 -68q0 -9 2 -12q12 -6 28 -6q6 0 23 2q14 1 22 0q5 -1 6 -21q0 -20 -4 -23z" />
    <glyph glyph-name="comma" unicode="," 
d="M182 159q0 -18 -14 -49q-20 -46 -20 -48q-5 -12 -33 -82q-13 -33 -24 -50q-4 -6 -14 -6q-15 0 -15 30q0 -16 13 105q-37 3 -45 20q-3 6 -3 39q0 40 6 55q11 26 43 26q31 0 60 -7q46 -10 46 -33z" />
    <glyph glyph-name="hyphen" unicode="-" horiz-adv-x="521" 
d="M469 274q0 -62 -31 -62q-3 0 -3.5 1t-4.5 1h-359q-14 0 -14 25q0 49 11 72q6 13 45 13q92 0 218 -19q41 -1 128 -14q10 -3 10 -17z" />
    <glyph glyph-name="hyphen" unicode="&#x2010;" horiz-adv-x="521" 
d="M469 274q0 -62 -31 -62q-3 0 -3.5 1t-4.5 1h-359q-14 0 -14 25q0 49 11 72q6 13 45 13q92 0 218 -19q41 -1 128 -14q10 -3 10 -17z" />
    <glyph glyph-name="hyphen" unicode="&#x2010;" horiz-adv-x="521" 
d="M469 274q0 -62 -31 -62q-3 0 -3.5 1t-4.5 1h-359q-14 0 -14 25q0 49 11 72q6 13 45 13q92 0 218 -19q41 -1 128 -14q10 -3 10 -17z" />
    <glyph glyph-name="period" unicode="." horiz-adv-x="265" 
d="M207 114q0 -27 -28 -46q-24 -16 -46 -16q-27 0 -43 24q-13 19 -13 43q0 29 27 45q21 13 46 13q22 0 39.5 -21.5t17.5 -41.5z" />
    <glyph glyph-name="slash" unicode="/" horiz-adv-x="481" 
d="M428 611q0 -12 -114 -209q-107 -185 -160 -269q-8 -13 -27 -36q-29 -35 -40 -35q-13 0 -28.5 11.5t-15.5 27.5q0 2 20 32q25 36 34 51q28 52 89 160q32 51 101 162q25 43 86 132q3 4 15 4q10 0 25 -11t15 -20z" />
    <glyph glyph-name="zero" unicode="0" horiz-adv-x="437" 
d="M390 374q0 -2 -2.5 -43t-2.5 -44v-98q0 -142 -116 -148q-47 -3 -129 -3q-9 0 -36 6q-23 4 -33 22q-33 57 -33 226q0 74 17 140q23 92 71 103q28 3 78 11q53 12 62 12q58 0 91 -24q14 -10 22 -39q11 -41 11 -121zM175 193q0 113 -24 113q-41 0 -41 -37q0 -43 16 -110
q9 -6 17 -6q32 0 32 40z" />
    <glyph glyph-name="one" unicode="1" horiz-adv-x="437" 
d="M402 78q2 -4 2 -7q0 -16 -36 -16q-3 0 -44.5 1.5t-45.5 1.5q-73 0 -146 -9q-4 -1 -17 -4t-17 -3q-11 0 -17 5v10q16 10 43 17q46 11 49 12q-9 50 -17 134q-11 125 -13 138q-7 36 -19 106q-8 -9 -34 -29q-31 -24 -41 -24q-13 0 -13 13q0 5 55.5 60.5t71.5 68.5
q21 16 40 18q27 4 73 4q48 0 52 -15q2 -6 3 -225q0 -49 -1 -106q-2 -74 -2 -86v-23q1 -21 1 -26q8 -6 25 -6q24 1 26 0q13 -1 22 -10z" />
    <glyph glyph-name="two" unicode="2" horiz-adv-x="463" 
d="M428 352q0 -89 -94 -164q-51 -40 -167 -97q14 -2 89 4q81 6 84 6q24 0 44 -15q0 -23 -1 -25q-3 -16 -15 -19q-37 -2 -107 -7q-10 -1 -46 -10q-29 -7 -74 -7q-3 0 -15 -1.5t-16 -1.5q-2 0 -29.5 3t-40.5 4q-10 10 -10 47q0 49 12 55q41 19 98.5 96.5t57.5 113.5
q0 61 -53 61q-28 0 -53 -25q-13 -13 -41 -55q-10 4 -19 17t-9 23q0 28 34 77q28 40 41 49q44 33 69 38q18 4 60 4q86 0 138 -36q63 -44 63 -135z" />
    <glyph glyph-name="three" unicode="3" horiz-adv-x="406" 
d="M364 164q0 -52 -40 -84q-35 -29 -78 -29q-15 0 -92 14q-88 16 -91 26q-1 3 3.5 15.5t6.5 12.5q-2 0 14.5 -1.5t28.5 -1.5q18 1 29 6q46 21 55 78q3 21 3 39q0 57 -32 57q-16 0 -29 -5q-4 -2 -13 20q-4 11 -2 12q17 7 46 25.5t29 60.5q0 26 -11 53q-27 69 -90 69
q-31 0 -66 -15q-7 8 -12 18q29 38 92 61q42 16 97 16q45 0 87 -28q48 -32 50 -80q3 -89 -22 -123q-17 -24 -84 -54q8 -8 14 -8q41 0 71 -35q36 -42 36 -119z" />
    <glyph glyph-name="four" unicode="4" horiz-adv-x="481" 
d="M460 256q-22 -1 -50 -7v-85q0 -3 5 -57.5t5 -58.5q0 -20 -15 -20q-3 0 -41 -1t-41 -1q-23 0 -23 24q0 6 1.5 17t1.5 13v99q0 6 -2.5 24t-2.5 27q0 14 5 21h-33q-3 0 -58.5 -6.5t-59 -6.5t-53 -1.5t-52.5 -1.5q-23 0 -25 11q-2 13 7 30l14 26q12 26 47 132q31 95 51 127
q3 5 11 4q15 -3 16 -3q9 0 29 -1q11 1 28 2.5t19 1.5q20 0 20 -18q0 10 -33 -163q-4 -34 -13 -86q25 3 79 6q-1 64 -1 151q0 56 24 56q33 0 60 -28q22 -24 22 -43v-103q0 -21 4 -25q1 -1 24.5 -0.5t26.5 -2.5t3 -31v-22z" />
    <glyph glyph-name="five" unicode="5" horiz-adv-x="492" 
d="M434 530q0 -14 -10 -17h-21q7 0 -92 3q-90 3 -104 2q1 -7 -1 -81q-4 -27 -9 -82q6 -4 10 -4q112 0 161 -29q62 -36 62 -134q0 -52 -45.5 -106t-102 -63.5t-102.5 -9.5q-30 0 -76 7q-61 9 -61 23q0 9 10 23t18 14q2 0 34 -5.5t35 -5.5q29 0 61 11q20 7 35 38q27 54 27 78
q0 -5 -8 39q-13 72 -112 72q-2 0 -43 -1h-43q-23 0 -23 26q0 2 5.5 43t5.5 44v68q0 20 9 64q10 5 28 10q200 12 184 12h120q2 0 9 2t9 2q14 0 23 -18q7 -14 7 -25z" />
    <glyph glyph-name="six" unicode="6" horiz-adv-x="460" 
d="M427 254q0 -78 -50 -150q-56 -79 -131 -79q-30 0 -97 17q-132 33 -132 211q0 144 104 254q43 46 104 80q69 38 125 38q30 0 30 -25q0 -35 -4.5 -41t-38.5 -6q-87 0 -123 -41q-14 -15 -24 -75q-9 -50 -9 -84l6 -1q58 20 108 20q59 0 95.5 -30t36.5 -88zM349 247v13
q0 37 -17 44q-9 5 -33 5q-59 0 -59 -68q0 -32 16 -43q12 -7 47 -7q32 0 40 13q6 9 6 43z" />
    <glyph glyph-name="seven" unicode="7" horiz-adv-x="535" 
d="M486 538q0 -18 -20 -118q-6 -34 -30 -125.5t-35 -127.5q-21 -72 -35 -103q-5 -15 -16 -47q-3 -10 -33 -10q-46 -1 -70 -2t-21 -1q-34 0 -127 13q-15 2 -15 19q0 3 13 34q15 35 19 47q28 84 75 181q13 28 104 202q-13 1 -46 -1q-36 -2 -34 -2h-108q-3 0 -5.5 -2.5
t-5.5 -2.5q-17 0 -54 3q-6 1 -14 10q-1 3 -1 15q0 26 13 28q61 10 140 6q-13 0 165 3q50 1 113 1q28 0 28 -20z" />
    <glyph glyph-name="eight" unicode="8" horiz-adv-x="426" 
d="M370 184q0 -60 -1 -73q-4 -42 -20 -63q-5 -6 -24 -15.5t-25 -9.5h-67q-3 0 -57.5 -7.5t-56.5 -7.5q-102 0 -102 200q0 52 4 63q13 26 73 58q-47 29 -47 72q0 32 15 87q14 49 25 70t53 32q79 7 102 7q104 0 104 -92q0 -42 -13 -87q-14 -48 -32 -65q15 -7 40 -27
q29 -35 29 -142zM180 447q0 73 -33 73q-19 0 -33 -39q-11 -29 -11 -44q0 -44 48 -44q21 0 27 17q2 8 2 37zM299 191q0 65 -45 65q-35 0 -35 -69q0 -3 3 -45q2 -19 6 -23q11 -10 36 -10q18 0 28 6q7 57 7 76z" />
    <glyph glyph-name="nine" unicode="9" horiz-adv-x="460" 
d="M405 35q0 -25 -27 -25q2 0 -70 12q-16 0 -49 2q-14 1 -14 12v226h-35l-19 -1q-121 0 -153 63q-14 29 -14 59q0 50 22 90q28 50 82 59q83 12 72 12q3 0 17 -2t17 -2q9 0 10 2q4 11 4 13q4 1 24 1q4 0 92 -3h14q10 -2 11 -9q5 -30 5 -137l-2 -249zM249 370v20q-3 10 -19 10
q-17 0 -34 -10q-20 -11 -20 -32q0 -23 20 -33.5t44 -7.5q9 16 9 53z" />
    <glyph glyph-name="colon" unicode=":" horiz-adv-x="265" 
d="M207 114q0 -27 -28 -46q-24 -16 -46 -16q-27 0 -43 24q-13 19 -13 43q0 29 27 45q21 13 46 13q22 0 39.5 -21.5t17.5 -41.5zM221 399q0 -27 -28 -46q-24 -16 -46 -16q-27 0 -43 24q-13 19 -13 43q0 29 27 45q21 13 46 13q22 0 39.5 -21.5t17.5 -41.5z" />
    <glyph glyph-name="semicolon" unicode=";" 
d="M181 187q0 -18 -14 -49q-20 -46 -20 -48q-5 -12 -33 -82q-13 -33 -24 -50q-4 -6 -14 -6q-15 0 -15 30q0 -16 13 105q-37 3 -45 20q-3 6 -3 39q0 40 6 55q11 26 43 26q31 0 60 -7q46 -10 46 -33zM185 436q0 -27 -28 -46q-24 -16 -46 -16q-27 0 -43 24q-13 19 -13 43
q0 29 27 45q21 13 46 13q22 0 39.5 -21.5t17.5 -41.5z" />
    <glyph glyph-name="less" unicode="&#x3c;" horiz-adv-x="250" 
d="M204 243q0 -4 -6.5 -9.5t-11.5 -5.5q-2 0 -61 37q-68 42 -96 57q-8 4 -8 14q0 15 71 78q15 16 31 33q27 29 38 29t27 -23t16 -31q0 -6 -40 -51q-43 -49 -45 -54q85 -60 85 -74z" />
    <glyph glyph-name="equal" unicode="=" horiz-adv-x="530" 
d="M479 385q0 -18 -18 -18q-4 0 -35 2.5t-34 2.5t-75.5 2.5t-75.5 2.5q-4 0 -92 -10t-91 -10q-12 0 -22.5 16t-11.5 33q117 38 370 38q53 0 65 -6q20 -10 20 -53zM484 285q0 -36 -13 -46q-69 10 -253 10q-3 0 -68 -5t-68 -5q-45 0 -45 29q0 12 6 25q74 39 334 39q67 0 84 -1
q10 -1 16.5 -7t6.5 -39z" />
    <glyph glyph-name="greater" unicode="&#x3e;" horiz-adv-x="250" 
d="M21 461q0 4 6.5 9.5t11.5 5.5q2 0 61 -36q68 -42 96 -57q8 -5 8 -15q0 -14 -71 -77l-30 -34q-28 -29 -39 -29t-27 23t-16 31q0 7 40 52q43 49 45 53q-85 61 -85 74z" />
    <glyph glyph-name="question" unicode="?" horiz-adv-x="460" 
d="M415 588q0 -56 -35 -98q-26 -29 -105 -84q-2 -38 9 -99q0 -3 4.5 -20t4.5 -21q0 -26 -55 -26q-5 0 -12 4.5t-7 9.5q-1 30 -7.5 91.5t-6.5 59.5q0 15 31 36q19 12 37 25q13 9 29 36q6 10 6 26q0 57 -55 57q-43 0 -99 -37.5t-64 -37.5q-17 0 -26 16q-15 25 -33 73
q-16 42 -16 49q0 10 18 27q30 30 81 48q46 17 88 17q32 0 43 -2q19 -5 34 -6q53 -6 96 -55q40 -46 40 -89zM353 110q0 -21 -18 -33t-41 -12q-26 0 -43.5 16.5t-17.5 41.5q0 18 15.5 34t31.5 16q-2 0 20 -7q53 -17 53 -56z" />
    <glyph glyph-name="at" unicode="@" horiz-adv-x="481" 
d="M458 318q0 -47 -32.5 -80.5t-78.5 -33.5q-7 0 -20 3.5t-19 3.5t-48.5 -11t-63.5 -11q-83 0 -83 86q0 64 28 105q32 49 93 49q44 0 75 -28q17 18 25 18q10 0 18 -11l1 -8q0 -7 -4 -23.5t-4 -25.5q0 -21 7 -53q9 -42 10 -52q21 4 38 39q16 32 16 56q0 56 -43.5 103.5
t-98.5 47.5q-108 0 -156 -58q-45 -52 -45 -161q0 -66 40 -112q42 -50 106 -50q37 0 56.5 21.5t37.5 21.5q38 0 38 -41q0 -15 -6 -18q-48 -26 -117 -26q-81 0 -141 70q-56 66 -56 149q0 99 51 170q57 78 154 78q58 0 94 -13q51 -20 89.5 -84t38.5 -121zM308 310q0 20 -9 58
q-20 4 -41 6h-22q-1 -19 0 -29q2 -44 4 -62q5 -33 17 -38.5t36 -5.5h9q5 13 6 48v23z" />
    <glyph glyph-name="A" unicode="A" horiz-adv-x="443" 
d="M397 71q0 -19 -43 -19q-48 0 -46 23q-78 -6 -113 -6q-64 0 -114 40q-54 43 -54 107q0 47 30 94q35 53 97 80q32 14 136 26q-1 1 1 9t2 11q0 5 -3 6q-21 7 -54 8q-23 1 -52 0q-33 -2 -27 -2l-23 -3q-19 -2 -31 0v47q5 4 12 10q48 13 127 13q27 0 60 -13q25 -11 36 -19
q23 -20 29 -42q1 -4 6 -13t5 -12l7 -115q12 -211 12 -230zM304 117q-8 93 -8 134h-43q-30 0 -51 -31q-18 -25 -18 -49q0 -55 83 -54h37z" />
    <glyph glyph-name="B" unicode="B" horiz-adv-x="400" 
d="M364 197q0 -97 -40 -130q-35 -29 -131 -29q-3 0 -45 3.5t-45 3.5t-5 -5q-2 -8 -3 -9q-17 -8 -24 -8q-20 0 -38 7q3 28 3 32v519q0 39 51 39q24 0 23 -58q1 -53 -2 -159q1 -12 1 -29v-19q139 -7 186 -29q69 -32 69 -129zM189 153q0 18 -27 32q-23 13 -41 13q-4 0 -9 -1.5
t-7 -1.5q-3 -24 -3 -69q22 -8 42 -8q45 0 45 35z" />
    <glyph glyph-name="C" unicode="C" horiz-adv-x="383" 
d="M346 416q0 -119 -13 -142q-6 -1 -72 -1q-35 0 -66 -27t-31 -62q0 -60 40 -82q28 -16 94 -19l9 -8q4 -11 4 -33v-8q-25 -15 -86 -15q-11 0 -37 9q-33 11 -39 12q-59 14 -93 82q-30 58 -30 125q0 102 47 159q51 60 152 60q18 0 59 -5q46 -5 54 -11t8 -34z" />
    <glyph glyph-name="D" unicode="D" horiz-adv-x="435" 
d="M344 30q-3 -8 -21 -8h-25q-43 -5 -59 -5q-22 0 -23.5 16t-6.5 16q-3 0 -17 -2.5t-17 -2.5q-79 0 -125 38q-51 42 -51 122q0 67 56 117q51 46 107 46q3 0 8.5 -2.5t11.5 -2.5q8 0 23 4q1 99 0 152v51q-1 13 -1 8l3 23q13 9 85 9q6 0 39 -6q8 -87 8 -110v-178
q0 -190 5 -285zM209 107v76q0 11 -14 11q-18 0 -40.5 -21t-22.5 -41q0 -12 12.5 -20t27.5 -8q2 0 16 1.5t21 1.5z" />
    <glyph glyph-name="E" unicode="E" horiz-adv-x="426" 
d="M374 318q0 -33 -5.5 -47t-23.5 -16q-3 0 -63.5 2.5t-62.5 2.5q-61 0 -123 -5q-2 -1 -2 -6q0 -61 23 -109q30 -65 90 -65q25 0 56.5 15t36.5 15q12 0 22 -15q7 -12 7 -22q0 -17 -61 -33q-48 -12 -65 -12q-28 0 -61 6q-41 8 -53 20q-65 65 -65 180q0 209 126 290q13 9 95 9
q85 0 113 -75q16 -42 16 -135zM186 311q-10 72 -54 72q-21 0 -33 -20t-12 -39v-16h92z" />
    <glyph glyph-name="F" unicode="F" horiz-adv-x="533" 
d="M498 355q0 -26 -11 -29q-45 -13 -131 -13q-35 0 -47 3q-8 2 -17 35q-17 63 -54 86q-13 8 -27 8q-38 0 -38 -119q0 -25 1.5 -44t7.5 -31q46 2 46 -30q0 -17 -16 -19q-24 -4 -29 -8q2 -26 10 -86q7 -53 7 -55q0 -17 -6 -22q-10 -8 -19 -8q-1 0 -28 1t-40 1t-14 9
q-1 51 -5 157q-30 -3 -39 -3q-29 0 -29 23q0 31 16 36q23 1 47 3v101q0 103 70 153q59 41 158 41q187 0 187 -190z" />
    <glyph glyph-name="G" unicode="G" horiz-adv-x="485" 
d="M435 162q1 -203 -228 -203q5 0 -21 -1q-20 -1 -36 0q-23 1 -34.5 6t-11.5 37q0 23 23 23q3 0 31 -2.5t31 -2.5q59 0 68 7.5t11 16.5q11 37 11 61q0 2 -5.5 16t-7.5 27q-93 -8 -89 -8q-44 0 -60 3q-24 5 -48 23q-29 22 -38.5 59.5t-16.5 76.5q-2 8 -2 16q0 44 39 78
q47 41 132 41q29 0 61 -6q8 -1 20 -9q7 23 59 23q72 0 97 -6q4 -1 10 -38l3 -180q0 -16 1 -28.5t1 -29.5zM277 280l-4 35q-1 16 -6 48q-22 8 -49 8q-34 0 -44 -13q-7 -7 -7 -26q-1 -26 6 -36q12 -17 52 -17q6 0 52 1z" />
    <glyph glyph-name="H" unicode="H" horiz-adv-x="475" 
d="M434 152q0 -114 -12 -123q-6 -5 -22 -5q-23 0 -28 18q-3 9 -1 40q3 45 3 92q0 95 -85 95q-14 0 -39 -9.5t-28 -17.5q-3 -67 -14 -197q-2 -11 -29 -11q-15 0 -47 4h-49q-32 1 -46 9q-8 4 -8 28q0 45 2 97q1 10 7 90q6 63 24 305q1 19 38 19q3 0 102 -2q11 -1 22 -11v-139
q0 -71 0 -69q-1 -22 4 -27q40 6 62 6q65 0 96 -22q45 -30 43 -107q0 -6 2.5 -33.5t2.5 -29.5z" />
    <glyph glyph-name="I" unicode="I" horiz-adv-x="225" 
d="M212 580q0 -20 -18 -31t-39 -11q-48 0 -48 47q0 20 17 34t33 14q20 0 37.5 -16t17.5 -37zM192 16q-20 -8 -39 -8h-55q-41 0 -49 17q-4 7 -9 69q-3 29 -3 134q0 91 7 149v29q0 19 6 26q2 2 22 5t29 3q19 0 23 -11v-113q0 -70 37 -146q35 -72 31 -154z" />
    <glyph glyph-name="J" unicode="J" horiz-adv-x="409" 
d="M384 446q0 -41 -55 -41q-25 0 -45 8q-27 11 -27 32q0 25 29 40q24 12 48 12q50 0 50 -51zM346 347l-2 -171q1 -18 1 -35q0 -211 -201 -211q-83 0 -109 8q-11 4 -11 37q0 21 7 25q4 2 24 2q3 0 20.5 -1t21.5 -1q33 0 60 12q37 18 37 52v92q0 92 11 185q0 8 12 19
q46 -4 116 -6q7 0 13 -7z" />
    <glyph glyph-name="K" unicode="K" horiz-adv-x="481" 
d="M450 586q0 -9 -9 -19q-213 -257 -213 -258q0 -4 28 -39q36 -46 45 -59q126 -179 126 -183v-19h-88q-7 0 -27 4t-22 7q-56 69 -78 96q-51 67 -73 113q-3 -26 -6 -79q1 -38 0 -113q0 -9 -1 -13q-2 -8 -9 -10.5t-24 -2.5q-15 0 -53 5q-6 0 -10 6q-8 26 -8 35q0 112 2 118
q2 4 0 235q0 10 6.5 70.5t6.5 62.5v77q0 19 43 19q-4 0 38 -3q38 -2 58 -1q11 -12 11 -60q0 -3 -7.5 -101.5t-7.5 -101.5q0 -31 4 -43q240 277 248 277q20 0 20 -20z" />
    <glyph glyph-name="L" unicode="L" horiz-adv-x="276" 
d="M208 118q0 -42 -3.5 -51t-17.5 -11q-42 -5 -91 -5h-42q-24 6 -24 111q0 3 1 22q0 23 1 33l9 380q11 9 27 9q19 0 40 -6q30 -7 30 -20v-96q0 -134 15 -202q2 -6 38 -57q17 -22 17 -107z" />
    <glyph glyph-name="M" unicode="M" horiz-adv-x="579" 
d="M552 163q0 -34 -4 -141q-3 -5 -9 -12q-8 0 -31 -1.5t-25 -1.5q-4 0 -11.5 1.5t-9.5 1.5q1 66 -5 164q-2 31 -4 63q-10 54 -44 54q-10 0 -23 -10q-16 -13 -20 -31q0 -13 -3 -36.5t-41 -23.5h-38q-21 0 -24 24q-5 44 -5 45q-10 24 -45 24q-21 0 -38 -19q-6 -7 -7 -23v-22
q-5 -59 -5 -53v-88q0 -4 2 -17t2 -20q0 -24 -19 -26q-31 -3 -97 -3q-17 0 -22 4.5t-9 25.5l-3 330q1 22 7 67q30 10 131 10q16 0 16 -57q1 1 28 19q17 10 39 10q28 -1 42.5 -7t36.5 -24q17 18 55.5 34t63.5 16q86 0 110 -104q9 -41 9 -173z" />
    <glyph glyph-name="N" unicode="N" horiz-adv-x="469" 
d="M430 172q0 -45 -5 -100v-25q-1 -17 -8 -21q-10 -7 -67 -7q-83 0 -87 16q-1 3 -1 58v86q0 164 -89 164q-63 0 -84 -62l3 -191q2 -22 2 -31q0 -31 -39 -31q-27 0 -30 12v53q-3 119 -3 251q0 94 19 94q23 0 33 -7q15 -11 17 -56q64 30 80 36q47 19 87 19q44 0 67 -8
q31 -10 60 -42q22 -24 35 -103q10 -59 10 -105z" />
    <glyph glyph-name="O" unicode="O" horiz-adv-x="458" 
d="M395 158q0 -51 -12 -76q-16 -34 -59 -42q-14 -3 -35 -4h-78q-23 0 -77 7q-16 -1 -41 5q-35 21 -48 89q-7 40 -7 113q0 62 6 92t30 93q2 4 14 12q35 23 72 31q73 18 125 18q18 0 46 -11q33 -13 37.5 -24.5t9.5 -26.5q16 -178 17 -276zM341 240q0 53 -2 71q-9 75 -50 75
q-45 0 -59 -78q-6 -35 -6 -84v-8.5v-10.5q0 -67 52 -67q53 0 63 40q2 5 2 62z" />
    <glyph glyph-name="P" unicode="P" horiz-adv-x="417" 
d="M384 205q0 -77 -64 -109q-46 -23 -140 -27l2 -140q-2 -3 -7 -10q-3 -2 -10 -2q-11 0 -58 -3q-41 -3 -67 -2q-6 0 -9 5q-2 2 -2 10q-3 90 0 229q-1 98 1 207q2 9 95 9q3 0 14 2q9 1 14 0q7 -1 12 -6q2 -3 0 -14t1 -15q61 5 130 -25q88 -38 88 -109zM260 142q0 25 -23 39
q-19 12 -41 12q-15 0 -21 -3q0 -52 3 -79h34l44 11z" />
    <glyph glyph-name="Q" unicode="Q" horiz-adv-x="435" 
d="M394 -35q0 -46 -3 -93q-1 -15 -11 -18q-33 -9 -39 -9q-72 0 -80 21q-6 14 -6 41t-1 99l-1 72q-10 -1 -90 -1q-77 0 -114 56q-29 43 -29 106q0 94 29 143q39 66 134 66q34 0 56 -13h7q0 35 52 35q8 0 23 -5t16 -8q6 -49 6 -65v-118q0 -178 6.5 -196.5t29.5 -53.5
q15 -22 15 -59zM252 271q0 4 -2.5 12t-2.5 11v85q-8 9 -19 9q-22 0 -35 -31q-11 -24 -11 -49q0 -29 13 -49q16 -24 43 -24q14 0 14 36z" />
    <glyph glyph-name="R" unicode="R" horiz-adv-x="510" 
d="M477 384q0 -12 -30.5 -26t-41.5 -14q-14 0 -20 10q-11 19 -18 26q-21 19 -73 19q-55 0 -76 -23q-16 -18 -16 -57q0 -11 1.5 -36.5t1.5 -38.5q0 -93 1 -113q0 -16 5 -46.5t5 -31.5q0 -9 -6 -18q-84 -9 -96 -9q-70 0 -77 29q-1 2 -1 54q2 67 8 219l3 55v122q11 13 30 14
q-5 -1 32 -2q19 -1 46 0q31 1 26 1q22 0 22 -27q0 -8 -1.5 -18t-1.5 -12l-3 -13q0 3 6 2t8 0q11 6 33 17t60 11q45 0 98 -18q75 -27 75 -76z" />
    <glyph glyph-name="S" unicode="S" horiz-adv-x="328" 
d="M286 503q0 -44 -12 -46q-22 1 -65 -4q-49 -16 -49 -68q0 -5 19.5 -74.5t19.5 -90.5q0 -46 -26 -98q-31 -62 -81 -80q-4 -2 -29 -13q-19 -9 -23 -9t-14 9v19q62 27 80 54q15 22 15 78q0 30 -33 78q-14 21 -31 55q-23 48 -23 69q0 24 19 71q22 55 72 86q44 27 91 27
q40 0 55 -13.5t15 -49.5z" />
    <glyph glyph-name="T" unicode="T" horiz-adv-x="409" 
d="M371 27q-5 -3 -42.5 -7.5t-56.5 -4.5q-48 0 -72 4q-47 10 -65 36q-15 20 -26 104q-9 67 -9 89v99q-19 -1 -38 -1q-29 1 -29 20q0 20 10 25t27 5h28q9 27 9 72v27q-1 17 -1 22q0 15 3 17q7 10 47 10q10 0 18 -7t8 -15v-116q0 -6 5 -10h39q29 -3 29 -22q0 -3 -1.5 -11
t-1.5 -13q-74 0 -70 0v-66q0 -90 48 -114q35 -12 70 -12q11 0 32 -2q10 1 32 -3q7 -68 7 -126z" />
    <glyph glyph-name="U" unicode="U" horiz-adv-x="432" 
d="M399 132q0 -21 -2 -54q-2 -44 -2 -54q-5 -9 -15 -9q-7 0 -19.5 1.5t-18.5 1.5q-12 6 -11 38q-64 -6 -59 -6q-135 0 -189 52q-57 53 -57 187q0 126 6 150q2 11 40 11q10 0 30 4t30 4q49 0 49 -59q0 -9 -1 -28t-1 -27q0 -6 2.5 -16.5t2.5 -15.5q0 -102 -1 -101
q4 -53 26 -77q27 -31 88 -31q19 0 32 2v159l8 11l7 1q28 2 43 -19q4 -5 8 -60q4 -45 4 -65z" />
    <glyph glyph-name="V" unicode="V" horiz-adv-x="459" 
d="M426 440q-20 -93 -80 -267q-13 -53 -47 -148q-3 -6 -23 -6l-38 2q-21 0 -43 -1q-23 1 -30 11q-1 2 -54 133q-23 59 -56.5 155.5t-33.5 105.5q0 20 29 21q19 0 27 -15l26 -58q21 -39 43 -105q19 -55 37 -111q20 73 75 241q7 18 13 36q9 25 18 34q6 7 36 7q49 0 101 -35z
" />
    <glyph glyph-name="W" unicode="W" horiz-adv-x="608" 
d="M590 375q0 -16 -92 -206q-26 -48 -76 -143q-2 -5 -15 -5t-59 59l-46 62q-9 -14 -52 -89q-12 -1 -43.5 -3.5t-33.5 -2.5q-21 0 -27 6q-32 31 -77 159q-15 43 -30 85q-20 60 -21 90q21 18 41 18q27 0 47 -53q11 -34 22 -69q16 -39 31 -85q15 20 55 89q32 53 37 53
q6 0 45 -55q47 -67 50 -70q5 0 7 3q13 45 47 119q27 60 54 119q15 3 75.5 -28t60.5 -53z" />
    <glyph glyph-name="X" unicode="X" horiz-adv-x="452" 
d="M428 332q0 -3 -152 -182q18 -14 37 -29q31 -25 31 -36q0 -9 -17 -20.5t-24 -11.5q-11 0 -42 23q-24 17 -32 25q-23 -26 -47 -52q-35 -38 -44 -38q-8 0 -61 29q-58 32 -58 47q0 8 87 118q-23 19 -46 39q-36 31 -36 44q0 12 21 31q18 17 23 17q6 0 43 -33q32 -30 39 -37
q36 38 73 77q72 72 93 72q23 0 69 -38q43 -35 43 -45z" />
    <glyph glyph-name="Y" unicode="Y" horiz-adv-x="422" 
d="M399 202q0 -97 -1 -120q-4 -11 -10 -33q-5 -41 -46 -69q-32 -22 -72 -28l-44 -10q-30 -7 -67 -7q-58 0 -77 12v44q19 12 34 12h109q22 0 60 19q49 24 49 54v59q-4 1 -8 1q-8 0 -25 -7q-20 -8 -28 -9q-67 -10 -120 -10q-48 0 -71 11q-14 3 -38 14q-18 17 -26 71.5
t-8 115.5q0 100 10 123q3 5 52 16t59 11h66q0 -47 2 -138q3 -76 4 -86q10 -84 45 -84q83 0 83 76v94q0 6 -1.5 16t-1.5 13q0 17 27 17q16 0 34 -7q10 -28 10 -171z" />
    <glyph glyph-name="Z" unicode="Z" horiz-adv-x="440" 
d="M424 25q-130 0 -182.5 -6t-71.5 -6q-47 0 -107 5q-13 0 -25 1q-18 2 -21 9q-9 21 -9 98q0 24 79 98q58 51 115 103q-31 5 -66 5h-85q-9 9 -10 27q-2 29 -2 32q5 6 18 13q33 7 68 7q3 0 101.5 -8.5t101.5 -8.5h88q6 -5 6 -42t-1 -39q-35 -68 -179 -209q-4 -5 -9 -18
l146 12h45q-3 -46 0 -73z" />
    <glyph glyph-name="bracketleft" unicode="[" horiz-adv-x="380" 
d="M327 643q0 -39 -2 -51q-6 -34 -28 -34q-3 0 -71 7.5t-71 7.5q-15 0 -17 -40v-49q-6 -89 -19 -265q-2 -17 -9 -64q-5 -43 -5 -46q0 -9 4 -13h119q3 0 20 2.5t20 2.5q24 0 24 -22q0 -11 -8 -22t-18 -11q1 0 -10 0q-12 1 -37 2h-93q-22 5 -45 10q-36 12 -36 29q0 3 7.5 94
t7.5 94v74q0 3 3 35q4 39 6 56q9 114 16 252q1 10 10.5 22t16.5 12q-8 0 71 -3q70 -2 81 -0.5t33.5 -2.5t23.5 -10q6 -45 6 -67z" />
    <glyph glyph-name="backslash" unicode="\" horiz-adv-x="446" 
d="M404 84q0 -11 -21 -19q-16 -6 -25 -6q-14 0 -37 39q-11 22 -23 44q-28 36 -63 100q-58 104 -60 108q-26 42 -76 136q-68 127 -68 147q0 11 24 21q19 7 29 7q18 0 55 -73q21 -47 43 -95q27 -52 62 -125q15 -32 92 -160q68 -114 68 -124z" />
    <glyph glyph-name="bracketright" unicode="]" horiz-adv-x="380" 
d="M316 83q0 -17 -37 -29l-44 -10q-59 0 -94 -1q-24 0 -35.5 -1t-10.5 -1q-10 0 -18 11t-8 23q0 21 23 21q3 0 20.5 -2.5t20.5 -2.5h119q4 5 4 14q0 3 -6 46q-6 47 -8 64q-4 46 -4.5 141.5t-3.5 127.5v49q-3 40 -17 40q-3 0 -71 -7.5t-71 -7.5q-23 0 -28 34q-2 12 -2 51
q0 22 6 67q0 6 23 10t34 2.5t80 0.5q79 3 72 3q7 0 16.5 -12t9.5 -22q7 -138 17 -252q2 -21 0 -58q-2 -45 -2 -37v-74q0 -4 7.5 -94.5t7.5 -93.5z" />
    <glyph glyph-name="asciicircum" unicode="^" horiz-adv-x="368" 
d="M330 638q0 -18 -19 -18q-18 0 -34 24q-28 42 -38 53q-23 -36 -32 -64q-4 -16 -13 -18q-74 -18 -100 -18q-69 0 -69 20q0 11 51.5 65t70 64.5t58.5 10.5q7 0 46 -6q5 0 42 -53t37 -60z" />
    <glyph glyph-name="underscore" unicode="_" horiz-adv-x="466" 
d="M425 61q0 -28 -26 -28q-3 0 -26 2.5t-27 2.5q-3 0 -85 -6t-85 -6h-89q-2 0 -20.5 -2.5t-22.5 -2.5q-21 0 -21 26q0 24 18 29q7 2 43 2h85q2 0 64.5 4t65.5 4l47 -4t71 -5q8 -6 8 -16z" />
    <glyph glyph-name="grave" unicode="`" horiz-adv-x="262" 
d="M174 538q0 -12 -6 -17q-33 -23 -46 -23q-2 0 -12 4q-10 23 -51 108q-35 72 -35 73q0 33 117 33q10 -10 12 -24q21 -166 21 -154z" />
    <glyph glyph-name="a" unicode="a" horiz-adv-x="443" 
d="M397 71q0 -19 -43 -19q-48 0 -46 23q-78 -6 -113 -6q-64 0 -114 40q-54 43 -54 107q0 47 30 94q35 53 97 80q32 14 136 26q-1 1 1 9t2 11q0 5 -3 6q-21 7 -54 8q-23 1 -52 0q-33 -2 -27 -2l-23 -3q-19 -2 -31 0v47q5 4 12 10q48 13 127 13q27 0 60 -13q25 -11 36 -19
q23 -20 29 -42q1 -4 6 -13t5 -12l7 -115q12 -211 12 -230zM304 117q-8 93 -8 134h-43q-30 0 -51 -31q-18 -25 -18 -49q0 -55 83 -54h37z" />
    <glyph glyph-name="b" unicode="b" horiz-adv-x="400" 
d="M364 197q0 -97 -40 -130q-35 -29 -131 -29q-3 0 -45 3.5t-45 3.5t-5 -5q-2 -8 -3 -9q-17 -8 -24 -8q-20 0 -38 7q3 28 3 32v519q0 39 51 39q24 0 23 -58q1 -53 -2 -159q1 -12 1 -29v-19q139 -7 186 -29q69 -32 69 -129zM189 153q0 18 -27 32q-23 13 -41 13q-4 0 -9 -1.5
t-7 -1.5q-3 -24 -3 -69q22 -8 42 -8q45 0 45 35z" />
    <glyph glyph-name="c" unicode="c" horiz-adv-x="383" 
d="M346 416q0 -119 -13 -142q-6 -1 -72 -1q-35 0 -66 -27t-31 -62q0 -60 40 -82q28 -16 94 -19l9 -8q4 -11 4 -33v-8q-25 -15 -86 -15q-11 0 -37 9q-33 11 -39 12q-59 14 -93 82q-30 58 -30 125q0 102 47 159q51 60 152 60q18 0 59 -5q46 -5 54 -11t8 -34z" />
    <glyph glyph-name="d" unicode="d" horiz-adv-x="435" 
d="M344 30q-3 -8 -21 -8h-25q-43 -5 -59 -5q-22 0 -23.5 16t-6.5 16q-3 0 -17 -2.5t-17 -2.5q-79 0 -125 38q-51 42 -51 122q0 67 56 117q51 46 107 46q3 0 8.5 -2.5t11.5 -2.5q8 0 23 4q1 99 0 152v51q-1 13 -1 8l3 23q13 9 85 9q6 0 39 -6q8 -87 8 -110v-178
q0 -190 5 -285zM209 107v76q0 11 -14 11q-18 0 -40.5 -21t-22.5 -41q0 -12 12.5 -20t27.5 -8q2 0 16 1.5t21 1.5z" />
    <glyph glyph-name="e" unicode="e" horiz-adv-x="426" 
d="M374 318q0 -33 -5.5 -47t-23.5 -16q-3 0 -63.5 2.5t-62.5 2.5q-61 0 -123 -5q-2 -1 -2 -6q0 -61 23 -109q30 -65 90 -65q25 0 56.5 15t36.5 15q12 0 22 -15q7 -12 7 -22q0 -17 -61 -33q-48 -12 -65 -12q-28 0 -61 6q-41 8 -53 20q-65 65 -65 180q0 209 126 290q13 9 95 9
q85 0 113 -75q16 -42 16 -135zM186 311q-10 72 -54 72q-21 0 -33 -20t-12 -39v-16h92z" />
    <glyph glyph-name="f" unicode="f" horiz-adv-x="533" 
d="M498 355q0 -26 -11 -29q-45 -13 -131 -13q-35 0 -47 3q-8 2 -17 35q-17 63 -54 86q-13 8 -27 8q-38 0 -38 -119q0 -25 1.5 -44t7.5 -31q46 2 46 -30q0 -17 -16 -19q-24 -4 -29 -8q2 -26 10 -86q7 -53 7 -55q0 -17 -6 -22q-10 -8 -19 -8q-1 0 -28 1t-40 1t-14 9
q-1 51 -5 157q-30 -3 -39 -3q-29 0 -29 23q0 31 16 36q23 1 47 3v101q0 103 70 153q59 41 158 41q187 0 187 -190z" />
    <glyph glyph-name="g" unicode="g" horiz-adv-x="485" 
d="M435 162q1 -203 -228 -203q5 0 -21 -1q-20 -1 -36 0q-23 1 -34.5 6t-11.5 37q0 23 23 23q3 0 31 -2.5t31 -2.5q59 0 68 7.5t11 16.5q11 37 11 61q0 2 -5.5 16t-7.5 27q-93 -8 -89 -8q-44 0 -60 3q-24 5 -48 23q-29 22 -38.5 59.5t-16.5 76.5q-2 8 -2 16q0 44 39 78
q47 41 132 41q29 0 61 -6q8 -1 20 -9q7 23 59 23q72 0 97 -6q4 -1 10 -38l3 -180q0 -16 1 -28.5t1 -29.5zM277 280l-4 35q-1 16 -6 48q-22 8 -49 8q-34 0 -44 -13q-7 -7 -7 -26q-1 -26 6 -36q12 -17 52 -17q6 0 52 1z" />
    <glyph glyph-name="h" unicode="h" horiz-adv-x="475" 
d="M434 152q0 -114 -12 -123q-6 -5 -22 -5q-23 0 -28 18q-3 9 -1 40q3 45 3 92q0 95 -85 95q-14 0 -39 -9.5t-28 -17.5q-3 -67 -14 -197q-2 -11 -29 -11q-15 0 -47 4h-49q-32 1 -46 9q-8 4 -8 28q0 45 2 97q1 10 7 90q6 63 24 305q1 19 38 19q3 0 102 -2q11 -1 22 -11v-139
q0 -71 0 -69q-1 -22 4 -27q40 6 62 6q65 0 96 -22q45 -30 43 -107q0 -6 2.5 -33.5t2.5 -29.5z" />
    <glyph glyph-name="i" unicode="i" horiz-adv-x="225" 
d="M212 580q0 -20 -18 -31t-39 -11q-48 0 -48 47q0 20 17 34t33 14q20 0 37.5 -16t17.5 -37zM192 16q-20 -8 -39 -8h-55q-41 0 -49 17q-4 7 -9 69q-3 29 -3 134q0 91 7 149v29q0 19 6 26q2 2 22 5t29 3q19 0 23 -11v-113q0 -70 37 -146q35 -72 31 -154z" />
    <glyph glyph-name="j" unicode="j" horiz-adv-x="409" 
d="M384 446q0 -41 -55 -41q-25 0 -45 8q-27 11 -27 32q0 25 29 40q24 12 48 12q50 0 50 -51zM346 347l-2 -171q1 -18 1 -35q0 -211 -201 -211q-83 0 -109 8q-11 4 -11 37q0 21 7 25q4 2 24 2q3 0 20.5 -1t21.5 -1q33 0 60 12q37 18 37 52v92q0 92 11 185q0 8 12 19
q46 -4 116 -6q7 0 13 -7z" />
    <glyph glyph-name="k" unicode="k" horiz-adv-x="481" 
d="M450 586q0 -9 -9 -19q-213 -257 -213 -258q0 -4 28 -39q36 -46 45 -59q126 -179 126 -183v-19h-88q-7 0 -27 4t-22 7q-56 69 -78 96q-51 67 -73 113q-3 -26 -6 -79q1 -38 0 -113q0 -9 -1 -13q-2 -8 -9 -10.5t-24 -2.5q-15 0 -53 5q-6 0 -10 6q-8 26 -8 35q0 112 2 118
q2 4 0 235q0 10 6.5 70.5t6.5 62.5v77q0 19 43 19q-4 0 38 -3q38 -2 58 -1q11 -12 11 -60q0 -3 -7.5 -101.5t-7.5 -101.5q0 -31 4 -43q240 277 248 277q20 0 20 -20z" />
    <glyph glyph-name="l" unicode="l" horiz-adv-x="276" 
d="M208 118q0 -42 -3.5 -51t-17.5 -11q-42 -5 -91 -5h-42q-24 6 -24 111q0 3 1 22q0 23 1 33l9 380q11 9 27 9q19 0 40 -6q30 -7 30 -20v-96q0 -134 15 -202q2 -6 38 -57q17 -22 17 -107z" />
    <glyph glyph-name="m" unicode="m" horiz-adv-x="579" 
d="M552 163q0 -34 -4 -141q-3 -5 -9 -12q-8 0 -31 -1.5t-25 -1.5q-4 0 -11.5 1.5t-9.5 1.5q1 66 -5 164q-2 31 -4 63q-10 54 -44 54q-10 0 -23 -10q-16 -13 -20 -31q0 -13 -3 -36.5t-41 -23.5h-38q-21 0 -24 24q-5 44 -5 45q-10 24 -45 24q-21 0 -38 -19q-6 -7 -7 -23v-22
q-5 -59 -5 -53v-88q0 -4 2 -17t2 -20q0 -24 -19 -26q-31 -3 -97 -3q-17 0 -22 4.5t-9 25.5l-3 330q1 22 7 67q30 10 131 10q16 0 16 -57q1 1 28 19q17 10 39 10q28 -1 42.5 -7t36.5 -24q17 18 55.5 34t63.5 16q86 0 110 -104q9 -41 9 -173z" />
    <glyph glyph-name="n" unicode="n" horiz-adv-x="469" 
d="M430 172q0 -45 -5 -100v-25q-1 -17 -8 -21q-10 -7 -67 -7q-83 0 -87 16q-1 3 -1 58v86q0 164 -89 164q-63 0 -84 -62l3 -191q2 -22 2 -31q0 -31 -39 -31q-27 0 -30 12v53q-3 119 -3 251q0 94 19 94q23 0 33 -7q15 -11 17 -56q64 30 80 36q47 19 87 19q44 0 67 -8
q31 -10 60 -42q22 -24 35 -103q10 -59 10 -105z" />
    <glyph glyph-name="o" unicode="o" horiz-adv-x="458" 
d="M395 158q0 -51 -12 -76q-16 -34 -59 -42q-14 -3 -35 -4h-78q-23 0 -77 7q-16 -1 -41 5q-35 21 -48 89q-7 40 -7 113q0 62 6 92t30 93q2 4 14 12q35 23 72 31q73 18 125 18q18 0 46 -11q33 -13 37.5 -24.5t9.5 -26.5q16 -178 17 -276zM341 240q0 53 -2 71q-9 75 -50 75
q-45 0 -59 -78q-6 -35 -6 -84v-8.5v-10.5q0 -67 52 -67q53 0 63 40q2 5 2 62z" />
    <glyph glyph-name="p" unicode="p" horiz-adv-x="417" 
d="M384 205q0 -77 -64 -109q-46 -23 -140 -27l2 -140q-2 -3 -7 -10q-3 -2 -10 -2q-11 0 -58 -3q-41 -3 -67 -2q-6 0 -9 5q-2 2 -2 10q-3 90 0 229q-1 98 1 207q2 9 95 9q3 0 14 2q9 1 14 0q7 -1 12 -6q2 -3 0 -14t1 -15q61 5 130 -25q88 -38 88 -109zM260 142q0 25 -23 39
q-19 12 -41 12q-15 0 -21 -3q0 -52 3 -79h34l44 11z" />
    <glyph glyph-name="q" unicode="q" horiz-adv-x="435" 
d="M394 -35q0 -46 -3 -93q-1 -15 -11 -18q-33 -9 -39 -9q-72 0 -80 21q-6 14 -6 41t-1 99l-1 72q-10 -1 -90 -1q-77 0 -114 56q-29 43 -29 106q0 94 29 143q39 66 134 66q34 0 56 -13h7q0 35 52 35q8 0 23 -5t16 -8q6 -49 6 -65v-118q0 -178 6.5 -196.5t29.5 -53.5
q15 -22 15 -59zM252 271q0 4 -2.5 12t-2.5 11v85q-8 9 -19 9q-22 0 -35 -31q-11 -24 -11 -49q0 -29 13 -49q16 -24 43 -24q14 0 14 36z" />
    <glyph glyph-name="r" unicode="r" horiz-adv-x="510" 
d="M477 384q0 -12 -30.5 -26t-41.5 -14q-14 0 -20 10q-11 19 -18 26q-21 19 -73 19q-55 0 -76 -23q-16 -18 -16 -57q0 -11 1.5 -36.5t1.5 -38.5q0 -93 1 -113q0 -16 5 -46.5t5 -31.5q0 -9 -6 -18q-84 -9 -96 -9q-70 0 -77 29q-1 2 -1 54q2 67 8 219l3 55v122q11 13 30 14
q-5 -1 32 -2q19 -1 46 0q31 1 26 1q22 0 22 -27q0 -8 -1.5 -18t-1.5 -12l-3 -13q0 3 6 2t8 0q11 6 33 17t60 11q45 0 98 -18q75 -27 75 -76z" />
    <glyph glyph-name="s" unicode="s" horiz-adv-x="328" 
d="M286 503q0 -44 -12 -46q-22 1 -65 -4q-49 -16 -49 -68q0 -5 19.5 -74.5t19.5 -90.5q0 -46 -26 -98q-31 -62 -81 -80q-4 -2 -29 -13q-19 -9 -23 -9t-14 9v19q62 27 80 54q15 22 15 78q0 30 -33 78q-14 21 -31 55q-23 48 -23 69q0 24 19 71q22 55 72 86q44 27 91 27
q40 0 55 -13.5t15 -49.5z" />
    <glyph glyph-name="t" unicode="t" horiz-adv-x="409" 
d="M371 27q-5 -3 -42.5 -7.5t-56.5 -4.5q-48 0 -72 4q-47 10 -65 36q-15 20 -26 104q-9 67 -9 89v99q-19 -1 -38 -1q-29 1 -29 20q0 20 10 25t27 5h28q9 27 9 72v27q-1 17 -1 22q0 15 3 17q7 10 47 10q10 0 18 -7t8 -15v-116q0 -6 5 -10h39q29 -3 29 -22q0 -3 -1.5 -11
t-1.5 -13q-74 0 -70 0v-66q0 -90 48 -114q35 -12 70 -12q11 0 32 -2q10 1 32 -3q7 -68 7 -126z" />
    <glyph glyph-name="u" unicode="u" horiz-adv-x="432" 
d="M399 132q0 -21 -2 -54q-2 -44 -2 -54q-5 -9 -15 -9q-7 0 -19.5 1.5t-18.5 1.5q-12 6 -11 38q-64 -6 -59 -6q-135 0 -189 52q-57 53 -57 187q0 126 6 150q2 11 40 11q10 0 30 4t30 4q49 0 49 -59q0 -9 -1 -28t-1 -27q0 -6 2.5 -16.5t2.5 -15.5q0 -102 -1 -101
q4 -53 26 -77q27 -31 88 -31q19 0 32 2v159l8 11l7 1q28 2 43 -19q4 -5 8 -60q4 -45 4 -65z" />
    <glyph glyph-name="v" unicode="v" horiz-adv-x="459" 
d="M426 440q-20 -93 -80 -267q-13 -53 -47 -148q-3 -6 -23 -6l-38 2q-21 0 -43 -1q-23 1 -30 11q-1 2 -54 133q-23 59 -56.5 155.5t-33.5 105.5q0 20 29 21q19 0 27 -15l26 -58q21 -39 43 -105q19 -55 37 -111q20 73 75 241q7 18 13 36q9 25 18 34q6 7 36 7q49 0 101 -35z
" />
    <glyph glyph-name="w" unicode="w" horiz-adv-x="608" 
d="M590 375q0 -16 -92 -206q-26 -48 -76 -143q-2 -5 -15 -5t-59 59l-46 62q-9 -14 -52 -89q-12 -1 -43.5 -3.5t-33.5 -2.5q-21 0 -27 6q-32 31 -77 159q-15 43 -30 85q-20 60 -21 90q21 18 41 18q27 0 47 -53q11 -34 22 -69q16 -39 31 -85q15 20 55 89q32 53 37 53
q6 0 45 -55q47 -67 50 -70q5 0 7 3q13 45 47 119q27 60 54 119q15 3 75.5 -28t60.5 -53z" />
    <glyph glyph-name="x" unicode="x" horiz-adv-x="452" 
d="M428 332q0 -3 -152 -182q18 -14 37 -29q31 -25 31 -36q0 -9 -17 -20.5t-24 -11.5q-11 0 -42 23q-24 17 -32 25q-23 -26 -47 -52q-35 -38 -44 -38q-8 0 -61 29q-58 32 -58 47q0 8 87 118q-23 19 -46 39q-36 31 -36 44q0 12 21 31q18 17 23 17q6 0 43 -33q32 -30 39 -37
q36 38 73 77q72 72 93 72q23 0 69 -38q43 -35 43 -45z" />
    <glyph glyph-name="y" unicode="y" horiz-adv-x="422" 
d="M399 202q0 -97 -1 -120q-4 -11 -10 -33q-5 -41 -46 -69q-32 -22 -72 -28l-44 -10q-30 -7 -67 -7q-58 0 -77 12v44q19 12 34 12h109q22 0 60 19q49 24 49 54v59q-4 1 -8 1q-8 0 -25 -7q-20 -8 -28 -9q-67 -10 -120 -10q-48 0 -71 11q-14 3 -38 14q-18 17 -26 71.5
t-8 115.5q0 100 10 123q3 5 52 16t59 11h66q0 -47 2 -138q3 -76 4 -86q10 -84 45 -84q83 0 83 76v94q0 6 -1.5 16t-1.5 13q0 17 27 17q16 0 34 -7q10 -28 10 -171z" />
    <glyph glyph-name="z" unicode="z" horiz-adv-x="440" 
d="M424 25q-130 0 -182.5 -6t-71.5 -6q-47 0 -107 5q-13 0 -25 1q-18 2 -21 9q-9 21 -9 98q0 24 79 98q58 51 115 103q-31 5 -66 5h-85q-9 9 -10 27q-2 29 -2 32q5 6 18 13q33 7 68 7q3 0 101.5 -8.5t101.5 -8.5h88q6 -5 6 -42t-1 -39q-35 -68 -179 -209q-4 -5 -9 -18
l146 12h45q-3 -46 0 -73z" />
    <glyph glyph-name="braceleft" unicode="{" horiz-adv-x="273" 
d="M223 58q0 -26 -20 -26q-56 0 -95.5 47t-39.5 100q0 10 13 64q-17 8 -35 16q-28 15 -28 32q0 8 26 29l32 26q-30 44 -30 91q0 55 26 98q32 52 93 60q1 0 13 3.5t17 3.5q16 -13 18 -102q-3 -3 -8 -7q-36 -6 -62.5 -37t-26.5 -65q0 -3 5 -23t5 -22q0 -9 -24 -30
q-16 -12 -31 -25q14 -9 27 -18q23 -15 23 -25q0 -3 -7.5 -31.5t-7.5 -32.5q0 -33 54 -53q29 -10 57 -20q6 -19 6 -53z" />
    <glyph glyph-name="bar" unicode="|" 
d="M126 666q0 -3 -2.5 -27t-2.5 -27v-88q0 -3 -4 -51t-4 -51v-298q0 -2 2.5 -25.5t2.5 -26.5q0 -19 -18 -19q-38 0 -42.5 6.5t-7 63t-2.5 204.5l5 260q3 14 3 32v15v13q0 36 42 36q28 0 28 -17z" />
    <glyph glyph-name="braceright" unicode="}" horiz-adv-x="273" 
d="M248 346q0 -9 -26 -29l-32 -26q30 -44 30 -91q0 -55 -26 -98q-32 -53 -93 -60q-1 -1 -13 -4.5t-17 -2.5q-16 13 -18 102q2 2 8 7q35 6 62 36.5t27 65.5q0 3 -5 22.5t-5 22.5q0 8 24 29q16 13 31 26q-14 9 -27 17q-23 15 -23 26q0 3 7.5 31.5t7.5 31.5q0 33 -55 54
q-28 10 -57 20q-5 19 -5 53q0 26 20 26q55 0 96 -49q39 -45 39 -99q0 -10 -13 -63q17 -9 35 -17q28 -14 28 -31z" />
    <glyph glyph-name="asciitilde" unicode="~" horiz-adv-x="495" 
d="M448 648q-25 -23 -75.5 -37t-95.5 -14q-27 0 -80 22.5t-80 22.5q-32 0 -90 -22q-4 0 -6 1.5t-3 1.5v8q0 25 73 49q59 20 80 20q45 0 88 -27.5t63 -27.5q2 0 53.5 11t55.5 11q9 0 17 -8v-11z" />
    <glyph glyph-name="exclamdown" unicode="&#xa1;" horiz-adv-x="285" 
d="M67 489q0 26 60 26q11 0 34.5 -4.5t24.5 -7.5q5 -9 10 -44q11 -64 17 -186q9 -164 11 -188q-20 -11 -57 -24q-44 -14 -68 -14q-21 0 -28 12q-4 7 -4 29v401zM44 637q0 27 29 46q23 17 45 17q28 0 44 -25q12 -19 12 -43q0 -29 -26 -45q-21 -12 -46 -12q-23 0 -40.5 21
t-17.5 41z" />
    <glyph glyph-name="sterling" unicode="&#xa3;" horiz-adv-x="477" 
d="M446 452q0 -17 -11.5 -22.5t-43.5 -32.5q-38 -30 -38 -40q0 4 5 -24t5 -83q0 -97 -24.5 -140.5t-110.5 -97.5l7 -5q67 -16 94 -29q59 -30 59 -81q0 -54 -85 -84q-60 -21 -106 -21h-31q-12 0 -52 14q-101 36 -101 127q0 50 26 70q16 12 64 21q53 11 81 27q11 3 35 17
q-112 6 -152.5 40t-40.5 120q0 107 59 171.5t166 64.5q25 0 66 -27q7 11 27 26q50 39 67 39q15 0 25 -17t10 -33zM273 197q0 19 -1 57t-1 55q-4 0 -8.5 1.5t-7.5 1.5q-22 0 -43 -30q-19 -26 -19 -43q0 -24 21 -37q16 -10 38 -10q16 0 21 5zM298 -102q0 35 -51 60
q-41 19 -72 19q-5 0 -9 -18q-3 -14 -3 -20q0 -49 9 -69q16 -36 63 -36q20 0 41.5 21t21.5 43z" />
    <glyph glyph-name="paragraph" unicode="&#xb6;" horiz-adv-x="501" 
d="M442 446q0 -48 -91 -188t-127 -140q-19 0 -67 96q-29 62 -58 125q-33 63 -34 66q-16 36 -16 67q0 63 36 101t97 38q50 0 83 -23q44 -30 39 -90q54 23 72 23q32 0 50 -26q16 -21 16 -49z" />
    <glyph glyph-name="questiondown" unicode="&#xbf;" horiz-adv-x="460" 
d="M15 218q0 56 36 97q26 30 105 84q2 38 -9 100q0 2 -4.5 19t-4.5 21q0 26 55 26q4 0 11.5 -4t7.5 -10q0 -30 6.5 -91.5t6.5 -59.5q0 -14 -30 -36l-38 -24q-12 -10 -28 -37q-6 -9 -6 -25q0 -58 55 -58q43 0 99 37.5t63 37.5q18 0 27 -15q14 -26 32 -73q16 -43 16 -49
q0 -11 -17 -28q-30 -29 -81 -48q-47 -17 -88 -17q-32 0 -43 3q-19 4 -34 6q-53 5 -96 55q-41 46 -41 89zM78 695q0 22 18 33.5t41 11.5q26 0 43.5 -16t17.5 -41q0 -19 -15.5 -34.5t-32.5 -15.5q3 0 -19 7q-53 16 -53 55z" />
    <glyph glyph-name="quoteleft" unicode="&#x2018;" 
d="M17 383q0 18 14 49q20 45 20 47q5 13 33 83q13 33 24 50q4 6 14 6q15 0 15 -30q0 16 -13 -106q37 -3 45 -19q3 -6 3 -39q0 -40 -6 -56q-11 -25 -43 -25q-31 0 -60 6q-46 11 -46 34z" />
    <glyph glyph-name="quoteright" unicode="&#x2019;" 
d="M186 585q0 -18 -14 -49q-20 -46 -20 -48q-5 -12 -33 -82q-13 -33 -24 -50q-4 -6 -14 -6q-15 0 -15 30q0 -16 13 105q-37 3 -45 20q-3 6 -3 39q0 40 6 55q11 26 43 26q31 0 60 -7q46 -10 46 -33z" />
    <glyph glyph-name="quotedblleft" unicode="&#x201c;" horiz-adv-x="398" 
d="M210 406q0 18 14 49q20 46 21 48q4 13 32 83q14 33 24 50q4 5 14 5q15 0 15 -30q0 16 -13 -105q37 -3 45 -20q3 -6 3 -38q0 -40 -6 -56q-11 -26 -43 -26q-31 0 -60 7q-46 10 -46 33zM14 403q0 18 14 50q20 45 21 47q4 13 32 83q14 33 25 50q3 5 13 5q15 0 15 -30
q0 16 -12 -105q36 -3 44 -19q3 -7 3 -39q0 -40 -6 -56q-10 -26 -42 -26q-31 0 -60 7q-47 10 -47 33z" />
    <glyph glyph-name="quotedblright" unicode="&#x201d;" horiz-adv-x="398" 
d="M186 585q0 -18 -14 -49q-20 -46 -20 -48q-5 -12 -33 -82q-13 -33 -24 -50q-4 -6 -14 -6q-15 0 -15 30q0 -16 13 105q-37 3 -45 20q-3 6 -3 39q0 40 6 55q11 26 43 26q31 0 60 -7q46 -10 46 -33zM382 588q0 -18 -14 -49q-20 -46 -20 -48q-5 -12 -33 -82q-13 -33 -24 -50
q-4 -6 -14 -6q-15 0 -15 30q0 -16 13 105q-37 3 -45 20q-3 6 -3 39q0 40 6 55q11 26 43 26q31 0 60 -7q46 -10 46 -33z" />
    <glyph glyph-name="ellipsis" unicode="&#x2026;" horiz-adv-x="613" 
d="M207 114q0 -27 -28 -46q-24 -16 -46 -16q-27 0 -43 24q-13 19 -13 43q0 29 27 45q21 13 46 13q22 0 39.5 -21.5t17.5 -41.5zM406 114q0 -27 -28 -46q-24 -16 -46 -16q-27 0 -43 24q-13 19 -13 43q0 29 27 45q21 13 46 13q22 0 39.5 -21.5t17.5 -41.5zM584 117
q0 -27 -28 -46q-24 -16 -46 -16q-27 0 -43 24q-13 19 -13 43q0 29 27 45q21 13 46 13q22 0 39.5 -21.5t17.5 -41.5z" />
    </font>
</defs>
</svg>
